<svg xmlns="http://www.w3.org/2000/svg" aria-hidden="true" style="position:absolute;width:0;height:0;overflow:hidden">
  <defs>
    <symbol id="icon-icon-menu_close" viewBox="0 0 32 32">
      <path d="M23.733 10.304 22.229 8.8l-5.963 5.963L10.303 8.8l-1.504 1.504 5.963 5.963-5.963 5.963 1.504 1.504 5.963-5.963 5.963 5.963 1.504-1.504-5.963-5.963 5.963-5.963z"/>
    </symbol>
    <symbol id="icon-icon-menu_open" viewBox="0 0 32 32">
      <path d="M6.4 11.733V9.6h19.2v2.133H6.4zm0 5.334h19.2v-2.133H6.4v2.133zm0 5.333h19.2v-2.133H6.4V22.4z"/>
    </symbol>
    <symbol id="icon-icon-books" viewBox="0 0 27 32">
      <path d="M22.964 14.538h-.668v2.9h-1.451V8.801l-4.217-4.243H6.58v12.88H5.132v-2.9h-.668c-1.199 0-2.178.98-2.178 2.179v8.547c0 1.199.979 2.178 2.178 2.178h18.501c1.2 0 2.179-.979 2.179-2.178v-8.547a2.185 2.185 0 0 0-2.179-2.179zM7.862 5.839h8.233l3.469 3.491v7.504H7.862V5.839zM3.678 20.256v-1.422H6.58v1.422H3.678zm18.602 4.303H5.147v-1.422H22.28v1.422z"/>
      <path d="M16.748 8.948H9.083v1.274h7.665V8.948zM16.748 11.529H9.083v1.274h7.665v-1.274z"/>
    </symbol>
    <symbol id="icon-icon-delivery" viewBox="0 0 27 32">
      <path d="M22.186 19.904v4.715c0 .703-.575 1.278-1.278 1.278H6.522a1.282 1.282 0 0 1-1.278-1.278v-4.715H2.286v5.075a3.846 3.846 0 0 0 3.836 3.835h15.184a3.846 3.846 0 0 0 3.835-3.835v-5.075h-2.956z"/>
      <path d="m10.011 18.506 3.883 5.235 7.763-10.471h-4.548V4.464c0-.703-.575-1.278-1.278-1.278h-3.876c-.703 0-1.278.576-1.278 1.278v8.805H6.13l3.88 5.237z"/>
    </symbol>
    <symbol id="icon-icon-design" viewBox="0 0 27 32">
      <path d="M23.61 5.787H3.819c-.844 0-1.533.691-1.533 1.535v14.071c0 .843.689 1.534 1.533 1.534h7.286l-2.592 3.285h10.403l-2.593-3.287h7.288c.843 0 1.533-.69 1.533-1.533V7.322a1.54 1.54 0 0 0-1.534-1.535zm-.198 14.77H4.015V7.677h19.399v12.88h-.002z"/>
      <path d="M4.696 11.418h5.37a.256.256 0 0 0 .256-.255V9.464a.256.256 0 0 0-.256-.254h-5.37a.255.255 0 0 0-.255.254v1.698a.254.254 0 0 0 .255.256zM4.696 18.443h4.411a.256.256 0 0 0 .256-.255V15.16a.256.256 0 0 0-.256-.255H4.696a.255.255 0 0 0-.255.255v3.028a.254.254 0 0 0 .255.255zM15.959 18.443a.255.255 0 0 0 .255-.255V15.16a.255.255 0 0 0-.255-.255h-4.411a.255.255 0 0 0-.255.255v3.028c0 .141.114.255.255.255h4.411zM22.811 14.904h-4.412a.255.255 0 0 0-.254.255v3.028c0 .141.114.255.254.255h4.412c.14 0 .254-.114.254-.255v-3.028a.253.253 0 0 0-.254-.255zM13.424 11.418h9.388c.14 0 .254-.114.254-.255V9.464a.255.255 0 0 0-.254-.254h-9.388a.255.255 0 0 0-.255.254v1.698a.254.254 0 0 0 .255.256z"/>
    </symbol>
    <symbol id="icon-icon-post_press" viewBox="0 0 27 32">
      <path d="m19.094 20.032-5.38 2.231-11.429-4.738v5.991A3.855 3.855 0 0 0 6.13 27.36h15.167a3.855 3.855 0 0 0 3.845-3.844v-5.991l-6.049 2.507zM2.286 14.262v.219c0-.079.008-.138.009-.214l-.009-.005zM25.134 14.267c.002.076.009.133.009.214v-.22l-.009.006zM4.129 15.063v-4.117l-.155.114c-.776.571-1.429.891-1.623 2.405-.03.236-.048.502-.056.801l1.834 1.16v-.364z"/>
      <path d="M8.414 18.909h10.6l2.918-2.619.261-.165V8.256c0-.443-.241-.816-.587-1.047l-.281-.151a1.222 1.222 0 0 0-.414-.084h-3.005l-1.525-1.122h.011a2.596 2.596 0 0 0-.054-.031l-.869-.639c-.43-.317-.986-.469-1.552-.504-.069-.015-.151-.04-.203-.04-.028 0-.087.021-.125.027-.592.022-1.179.184-1.63.516l-.911.67-.6.44c-.349.216-.712.443-1.084.681H6.532c-.155 0-.3.037-.438.09l-.2.108c-.378.224-.645.618-.645 1.086v7.878l.246.155 2.918 2.62zm.361-5.646v-.962h9.399v.962H8.775zm9.399-3.925v.961H8.775v-.961h9.399zM23.456 11.06c-.042-.03-.097-.073-.142-.104v4.46l1.819-1.149a7.346 7.346 0 0 0-.055-.802c-.195-1.514-.847-1.834-1.623-2.405zM14.256 21.141l1.756-1.109h-4.596l1.756 1.109c.296.187.785.187 1.083 0z"/>
    </symbol>
    <symbol id="icon-icon-replication" viewBox="0 0 27 32">
      <path d="m25.097 8.74-6.23-6.231h-8.113a2.581 2.581 0 0 0-2.572 2.573v1.821H4.858a2.58 2.58 0 0 0-2.572 2.572v17.444a2.58 2.58 0 0 0 2.572 2.572h11.816a2.581 2.581 0 0 0 2.573-2.572v-1.821h3.323a2.581 2.581 0 0 0 2.572-2.573V8.783l-.045-.044zm-6.264-3.852 3.85 3.852h-2.95a.903.903 0 0 1-.9-.9V4.888zm-1.194 22.016c0 .495-.406.9-.901.9H4.794a.903.903 0 0 1-.901-.9V9.493c0-.496.406-.902.901-.902h3.387v13.934a2.581 2.581 0 0 0 2.572 2.573h6.885v1.806zm5.896-4.395c0 .495-.405.9-.9.9H10.69a.904.904 0 0 1-.901-.9V5.098c0-.496.406-.9.901-.9h6.535v3.657a2.58 2.58 0 0 0 2.572 2.572h3.738v12.081z"/>
      <path d="M21.2 12h-9.4v1.2h9.4V12zM21.2 14.6h-9.4v1.2h9.4v-1.2zM21.2 17.2h-9.4v1.2h9.4v-1.2z"/>
    </symbol>
    <symbol id="icon-icon-email" viewBox="0 0 32 32">
      <path d="M16 0C7.163 0 0 7.164 0 16s7.163 16 16 16c8.835 0 16-7.164 16-16S24.835 0 16 0zm8.258 17.876c-.33.854-.793 1.523-1.394 2.01a3.224 3.224 0 0 1-2.09.729c-.529 0-.997-.126-1.404-.379a2.198 2.198 0 0 1-.879-1.003h-.172c-.771.922-1.755 1.382-2.946 1.382-1.265 0-2.262-.379-2.991-1.14s-1.093-1.802-1.093-3.124c0-1.508.479-2.723 1.437-3.646.957-.921 2.208-1.382 3.753-1.382.614 0 1.291.06 2.031.177s1.348.259 1.827.423l-.245 5.242c0 .993.271 1.489.815 1.489.457 0 .821-.334 1.092-1.002.272-.669.407-1.541.407-2.621 0-1.15-.24-2.166-.719-3.05a4.872 4.872 0 0 0-2.019-2.02c-.868-.466-1.86-.697-2.976-.697-1.443 0-2.697.295-3.761.89-1.066.593-1.882 1.447-2.449 2.566-.569 1.12-.852 2.411-.852 3.875 0 1.973.527 3.486 1.581 4.54s2.581 1.58 4.582 1.58c.756 0 1.59-.083 2.496-.251a16.632 16.632 0 0 0 2.682-.734v2.058c-1.53.65-3.227.975-5.092.975-2.716 0-4.832-.715-6.351-2.144s-2.277-3.415-2.277-5.959c0-1.764.387-3.367 1.163-4.807a8.429 8.429 0 0 1 3.312-3.388c1.433-.819 3.082-1.227 4.947-1.227 1.571 0 2.975.322 4.211.964 1.236.644 2.191 1.558 2.862 2.743.672 1.186 1.008 2.556 1.008 4.106-.001 1.028-.165 1.97-.495 2.825z"/>
      <path d="M14.521 14.109c-.497.557-.745 1.317-.745 2.284 0 1.507.614 2.261 1.844 2.261.643 0 1.133-.227 1.468-.682.336-.453.54-1.19.612-2.213l.139-2.368a5.866 5.866 0 0 0-1.234-.117c-.893-.001-1.587.277-2.084.835z"/>
    </symbol>
    <symbol id="icon-icon-fone" viewBox="0 0 32 32">
      <path d="M16 0C7.163 0 0 7.164 0 16s7.163 16 16 16c8.836 0 16-7.164 16-16S24.836 0 16 0zm7.734 21.364c-.351.981-2.026 1.853-2.731 1.917-.111.01-.627.134-.87.134-.559 0-1.543-.205-3.85-1.106-1.804-.705-3.594-2.053-5.178-3.876-.501-.577-1.502-1.968-1.517-1.986-.658-.879-1.155-1.841-1.409-2.719a4.935 4.935 0 0 1-.205-1.349c0-1.823.891-2.765 1.318-3.218l.077-.081c.437-.473 1.805-.483 1.952-.494.301-.018.615.02.911.723.099.235 1.133 2.725 1.199 2.853.092.187.194.467.03.791 0 0-.161.332-.253.469-.045.066-.614.754-.743.88-.21.21-.321.343-.15.631.276.471 1.038 1.67 2.137 2.641 1.239 1.097 3.036 1.866 3.098 1.895.372.186.524.123.691-.067.239-.269.972-1.126 1.222-1.497.331-.49.698-.357 1.023-.241.378.135 2.395 1.124 2.669 1.26 0 0 .694.334.796.496.123.207.116 1.017-.217 1.942z"/>
    </symbol>
    <symbol id="icon-icon-facebook" viewBox="0 0 32 32">
      <path d="M16 0C7.163 0 0 7.164 0 16s7.163 15.999 16 15.999c8.836 0 16-7.163 16-15.999S24.836 0 16 0zm3.841 16H17.19v8.927h-3.57V16h-1.786v-3.572h1.771v-1.612c0-1.461.695-3.742 3.757-3.742l2.759.012v3.057h-2.004c-.324 0-.789.163-.789.858v1.427h2.839L19.841 16z"/>
    </symbol>
    <symbol id="icon-icon-instagram" viewBox="0 0 32 32">
      <path d="M20.822 9.167h-9.644c-1.15 0-2.085.937-2.085 2.085v9.497c0 1.149.935 2.085 2.085 2.085h9.644a2.088 2.088 0 0 0 2.084-2.085v-9.497a2.087 2.087 0 0 0-2.084-2.085zM16 20.835a4.84 4.84 0 0 1-4.835-4.833c0-2.667 2.169-4.836 4.835-4.836s4.835 2.169 4.835 4.836A4.84 4.84 0 0 1 16 20.835z"/>
      <path d="M16 12.337a3.667 3.667 0 0 0-3.662 3.665A3.667 3.667 0 0 0 16 19.665a3.667 3.667 0 0 0 3.662-3.663A3.668 3.668 0 0 0 16 12.337z"/>
      <path d="M16 0C7.164 0 0 7.164 0 16s7.164 16 16 16 16-7.164 16-16S24.836 0 16 0zm8.105 20.749a3.286 3.286 0 0 1-3.282 3.282h-9.644a3.287 3.287 0 0 1-3.282-3.282v-9.497a3.286 3.286 0 0 1 3.282-3.282h9.644a3.285 3.285 0 0 1 3.282 3.282v9.497z"/>
    </symbol>
    <symbol id="icon-icon-tviter" viewBox="0 0 32 32">
      <path d="M16 0C7.163 0 0 7.165 0 16.001 0 24.836 7.163 32 16 32c8.836 0 16-7.164 16-15.999C32 7.165 24.836 0 16 0zm6.833 12.575c.007.148.012.298.012.446 0 .685-.083 1.387-.239 2.081-.447 1.975-1.517 3.916-3.166 5.357-1.633 1.429-3.835 2.368-6.559 2.368-1.977 0-3.815-.571-5.365-1.548.274.031.55.047.833.047 1.622 0 3.11-.537 4.302-1.441.016-.011.007-.036-.013-.036a3.503 3.503 0 0 1-3.201-2.361.019.019 0 0 1 .022-.025c.206.037.416.059.628.059.318 0 .629-.045.924-.123a3.532 3.532 0 0 1-2.572-2.131c-.178-.433-.228-1.11-.237-1.261-.001-.014.014-.022.026-.014.445.237.949.383 1.483.411.022.001.031-.026.014-.038a3.432 3.432 0 0 1-1.497-2.826c0-.621.169-1.205.46-1.71.006-.011.022-.013.032-.001a10 10 0 0 0 7.199 3.579 3.441 3.441 0 0 1-.09-.785c0-1.902 1.568-3.446 3.5-3.446 1.009 0 1.919.419 2.556 1.089a7.04 7.04 0 0 0 2.099-.767c.043-.023.095.019.077.065a3.469 3.469 0 0 1-1.491 1.772 7.19 7.19 0 0 0 1.839-.469c.05-.021.096.036.065.08a7.069 7.069 0 0 1-1.641 1.629z"/>
    </symbol>
    <symbol id="icon-icon-viber" viewBox="0 0 32 32">
      <path d="M16 0C7.163 0 0 7.164 0 16.001 0 24.836 7.163 32 16 32c8.835 0 16-7.164 16-15.999C32 7.164 24.835 0 16 0zm.187 25.01a9.415 9.415 0 0 1-4.407-1.097.132.132 0 0 0-.105-.01l-5.089 1.618a.085.085 0 0 1-.107-.109l1.654-4.887a.135.135 0 0 0-.012-.111 9.189 9.189 0 0 1-1.262-5.083c.218-4.966 4.315-8.859 9.328-8.859 5.105 0 9.205 3.969 9.334 9.033 0 0 .004.169.004.236-.001 5.111-4.191 9.268-9.34 9.268z"/>
      <path d="M16.187 8.217c-3.925 0-7.169 2.921-7.546 6.796a7.417 7.417 0 0 0 1.411 5.144.131.131 0 0 1 .018.124l-.827 2.439a.074.074 0 0 0 .094.095L11.898 22a.128.128 0 0 1 .111.013c.166.1.695.417.974.546a7.576 7.576 0 0 0 3.203.707c4.182 0 7.583-3.375 7.583-7.525 0-.172-.007-.358-.026-.588-.302-3.888-3.622-6.935-7.556-6.935zm4.315 10.713c-.204.57-1.175 1.074-1.583 1.11-.065.006-.363.078-.506.078-.324 0-.895-.117-2.231-.642-1.046-.409-2.083-1.19-3.002-2.246-.29-.334-.87-1.14-.88-1.151-.381-.51-.669-1.067-.816-1.577a2.833 2.833 0 0 1-.119-.781c0-1.059.516-1.605.765-1.868l.045-.046c.253-.276 1.046-.281 1.132-.287.174-.011.356.011.528.419.058.134.657 1.58.694 1.653.053.109.112.273.017.461 0 0-.094.191-.146.272a9.979 9.979 0 0 1-.431.51c-.122.123-.186.201-.087.368.16.273.602.967 1.239 1.531.719.637 1.76 1.083 1.795 1.1.217.107.304.07.402-.041.138-.156.562-.652.708-.867.191-.284.404-.207.592-.141.221.08 1.39.651 1.549.732 0 0 .403.194.462.287.068.119.065.589-.127 1.125z"/>
    </symbol>
    <symbol id="icon-icon-location" viewBox="0 0 32 32">
      <path d="M16 0C7.163 0 0 7.164 0 16s7.163 16 16 16c8.836 0 16-7.164 16-16S24.836 0 16 0zm0 26.866s-6.986-6.855-6.986-14.164c0-6.396 4.411-7.567 6.986-7.567s6.987 1.669 6.987 7.567c0 7.309-6.987 14.164-6.987 14.164z"/>
      <path d="M16 15.266a3.147 3.147 0 1 0 0-6.294 3.147 3.147 0 0 0 0 6.294z"/>
    </symbol>
  </defs>
</svg>
